<?xml version="1.0" encoding="UTF-8"?>
<svg version="1.1" xmlns="http://www.w3.org/2000/svg" width="320" height="320">
<path d="M0 0 C4.69355214 0.01514049 9.309491 0.20616077 13.984375 0.6328125 C26.72201227 1.68800139 39.63075968 1.534551 52.3515625 0.35546875 C56.62678747 0.01795099 60.88678448 0.04575648 65.171875 0.1328125 C66.21290372 4.60923601 66.10507378 7.99600972 65.234375 12.5078125 C62.34648274 29.65714528 62.63023251 49.50788504 68.171875 66.1328125 C68.296875 69.7578125 68.296875 69.7578125 68.171875 73.1328125 C67.171875 74.1328125 67.171875 74.1328125 64.35618591 74.25306702 C62.46755577 74.2497361 62.46755577 74.2497361 60.54077148 74.24633789 C59.84812195 74.24648392 59.15547241 74.24662994 58.4418335 74.2467804 C56.14218054 74.24608124 53.84260763 74.23828878 51.54296875 74.23046875 C49.95256088 74.22860458 48.36215243 74.22718067 46.77174377 74.22618103 C42.5779157 74.22235579 38.38412205 74.21252545 34.19030762 74.20147705 C29.91398586 74.19126307 25.63765856 74.18668344 21.36132812 74.18164062 C12.96482792 74.17090319 4.56835574 74.15382669 -3.828125 74.1328125 C-6.12942616 68.71809079 -6.12942616 68.71809079 -5.18359375 65.05859375 C-5.00151367 64.31375732 -4.81943359 63.5689209 -4.63183594 62.80151367 C-4.42848633 62.02396729 -4.22513672 61.2464209 -4.015625 60.4453125 C-3.62496091 58.82386216 -3.23820101 57.20146589 -2.85546875 55.578125 C-2.67226074 54.80500977 -2.48905273 54.03189453 -2.30029297 53.23535156 C-1.39643137 49.21050353 -0.98302813 45.24784776 -0.828125 41.1328125 C-0.76818359 39.71935547 -0.76818359 39.71935547 -0.70703125 38.27734375 C-0.55294774 30.98103613 -1.17776735 23.88742751 -2.11645508 16.6640625 C-2.76745766 11.50705542 -3.2206691 6.33113546 -2.828125 1.1328125 C-1.828125 0.1328125 -1.828125 0.1328125 0 0 Z M17.171875 16.1328125 C16.841875 17.4528125 16.511875 18.7728125 16.171875 20.1328125 C17.491875 20.1328125 18.811875 20.1328125 20.171875 20.1328125 C20.171875 18.8128125 20.171875 17.4928125 20.171875 16.1328125 C19.181875 16.1328125 18.191875 16.1328125 17.171875 16.1328125 Z M43.171875 16.1328125 C42.841875 17.4528125 42.511875 18.7728125 42.171875 20.1328125 C43.161875 20.4628125 44.151875 20.7928125 45.171875 21.1328125 C45.831875 19.8128125 46.491875 18.4928125 47.171875 17.1328125 C45.851875 16.8028125 44.531875 16.4728125 43.171875 16.1328125 Z M16.171875 27.1328125 C15.3743895 29.45277032 15.05752672 30.75264159 15.7734375 33.1328125 C18.53863919 38.53656543 21.18399333 42.13685194 27.171875 44.1328125 C33.41188522 44.66162693 38.07606758 43.97721589 43.171875 40.1328125 C45.92676078 36.93683545 47.11291265 33.94354474 47.421875 29.6953125 C47.339375 28.8496875 47.256875 28.0040625 47.171875 27.1328125 C46.511875 27.1328125 45.851875 27.1328125 45.171875 27.1328125 C44.99011719 27.74769531 44.80835937 28.36257812 44.62109375 28.99609375 C44.36972656 29.80433594 44.11835937 30.61257812 43.859375 31.4453125 C43.61574219 32.24582031 43.37210938 33.04632813 43.12109375 33.87109375 C42.10832077 36.28424418 41.20152458 37.50408136 39.171875 39.1328125 C34.41045628 40.71995207 28.97151509 41.35302223 24.25390625 39.296875 C19.77873025 36.00402945 19.04895506 32.30758484 18.171875 27.1328125 C17.511875 27.1328125 16.851875 27.1328125 16.171875 27.1328125 Z " fill="#0170FC" transform="translate(16.828125,135.8671875)"/>
<path d="M0 0 C1.32451172 0.17982422 1.32451172 0.17982422 2.67578125 0.36328125 C3.33964844 0.47027344 4.00351563 0.57726562 4.6875 0.6875 C4.69336624 1.32341568 4.69923248 1.95933136 4.70527649 2.61451721 C4.76934902 9.24989249 4.85380467 15.88478899 4.94995117 22.51977539 C4.98314804 24.99399492 5.01119618 27.46828922 5.03393555 29.94262695 C5.06757701 33.50504334 5.11989987 37.06677772 5.17578125 40.62890625 C5.18217117 41.73021378 5.1885611 42.8315213 5.19514465 43.96620178 C5.30859534 49.93014073 5.66351082 54.47954324 8.6875 59.6875 C13.10566745 62.4596835 16.77099054 63.21902593 21.82421875 62.3359375 C24.97445049 61.23963044 26.66888623 59.2566448 28.6875 56.6875 C30.26483174 51.95550479 30.21507348 48.13138532 28.5 43.4375 C26.4387539 40.31009213 25.14643025 39.10251692 21.6875 37.6875 C17.11245281 37.27901364 13.82160434 37.68308578 9.6875 39.6875 C8.82652159 30.00627615 8.82652159 30.00627615 12.0625 26.125 C16.44877138 22.05203372 19.75242357 22.34135503 25.58203125 22.41796875 C32.21171778 22.99337551 36.12974233 25.80995112 40.5625 30.625 C46.30546802 37.68624022 47.48600513 45.75607224 46.6875 54.6875 C45.37015199 61.25191211 42.55365606 67.03423826 37.6875 71.6875 C29.00554811 77.29459393 20.33058807 78.76582715 10.16796875 77.33203125 C2.92370294 75.63219565 -2.76074186 71.55049856 -7.3125 65.6875 C-10.62058335 58.68605619 -10.779886 51.72229798 -10.78125 44.1015625 C-10.79267029 42.33345718 -10.79267029 42.33345718 -10.80432129 40.52963257 C-10.81507412 38.05379344 -10.81799514 35.57790913 -10.81347656 33.10205078 C-10.81249754 29.30295619 -10.85431663 25.50583823 -10.8984375 21.70703125 C-10.90363986 19.29687921 -10.90633277 16.88672016 -10.90625 14.4765625 C-10.92264526 13.33909576 -10.93904053 12.20162903 -10.95593262 11.0296936 C-10.9466272 9.97784882 -10.93732178 8.92600403 -10.92773438 7.84228516 C-10.92978882 6.91678864 -10.93184326 5.99129211 -10.93395996 5.03775024 C-10.3125 2.6875 -10.3125 2.6875 -8.1060791 0.84579468 C-4.98600803 -0.44787255 -3.31020969 -0.48549742 0 0 Z " fill="#0170FC" transform="translate(217.3125,134.3125)"/>
<path d="M0 0 C0.91007812 0.10183594 1.82015625 0.20367187 2.7578125 0.30859375 C3.45648438 0.39238281 4.15515625 0.47617188 4.875 0.5625 C4.88086624 1.1858876 4.88673248 1.80927521 4.89277649 2.45155334 C4.95685723 8.95717345 5.04131486 15.46230559 5.13745117 21.9675293 C5.17064466 24.39324498 5.19869384 26.81903686 5.22143555 29.24487305 C5.25508331 32.73779684 5.30740631 36.23002585 5.36328125 39.72265625 C5.36967117 40.80209 5.3760611 41.88152374 5.38264465 42.9936676 C5.51254611 49.69101155 5.83527919 55.45311892 10.75 60.48046875 C13.30069159 61.7792584 15.02218948 61.93153435 17.875 61.875 C19.1434375 61.86919922 19.1434375 61.86919922 20.4375 61.86328125 C24.14408728 61.40589788 26.2143001 60.34118202 28.625 57.5 C30.35476884 53.43504323 30.58033929 49.91720347 29.875 45.5625 C27.8699912 41.7598971 26.44813738 39.94459159 22.875 37.5625 C17.91754494 37.24266419 14.39461078 37.30269461 9.875 39.5625 C9.01402159 29.88127615 9.01402159 29.88127615 12.25 26 C16.63627138 21.92703372 19.93992357 22.21635503 25.76953125 22.29296875 C32.25545573 22.85589804 36.25253681 25.62100717 40.6875 30.25 C46.16424548 37.03966392 47.4681275 43.94692794 47.2265625 52.56640625 C46.34773453 60.05597347 43.2387015 66.32353574 37.875 71.5625 C29.83997125 77.12521221 20.86680967 78.6117909 11.24609375 77.16796875 C4.03165386 75.61270007 -1.72935055 72.6206624 -6.125 66.5625 C-9.78306404 58.76781428 -10.71055976 51.7500619 -10.62109375 43.21875 C-10.62254898 42.08723511 -10.62400421 40.95572021 -10.62550354 39.78991699 C-10.6238553 37.42013957 -10.61241606 35.05035022 -10.59155273 32.68066406 C-10.56235519 29.04446533 -10.57101518 25.40970547 -10.58398438 21.7734375 C-10.57775334 19.46353457 -10.5693674 17.15363621 -10.55859375 14.84375 C-10.56152939 13.75630493 -10.56446503 12.66885986 -10.56748962 11.54846191 C-10.55480545 10.54311401 -10.54212128 9.53776611 -10.52905273 8.50195312 C-10.52364975 7.6180188 -10.51824677 6.73408447 -10.51268005 5.82336426 C-10.04514379 3.09679626 -9.27401157 2.24676458 -7.125 0.5625 C-4.50184968 -0.74907516 -2.89466564 -0.33399988 0 0 Z " fill="#0170FB" transform="translate(109.125,134.4375)"/>
<path d="M0 0 C0.66 0.33 1.32 0.66 2 1 C2 25.42 2 49.84 2 75 C-3.28 75 -8.56 75 -14 75 C-14.06777466 65.81184156 -14.12281533 56.62384912 -14.15543652 47.43549728 C-14.17109298 43.16898055 -14.19233076 38.90264368 -14.22631836 34.63623047 C-14.25891271 30.51894614 -14.27685316 26.40183484 -14.28463173 22.28443146 C-14.29017512 20.71353685 -14.30100004 19.14265171 -14.31719017 17.57183075 C-14.33896601 15.37157217 -14.34196695 13.17202867 -14.34057617 10.97167969 C-14.34723801 9.71925476 -14.35389984 8.46682983 -14.36076355 7.17645264 C-13.97227549 3.7558911 -13.44083819 2.38305669 -11 0 C-6.91113345 -1.36295552 -4.25441935 -0.67530466 0 0 Z " fill="#0071FD" transform="translate(283,135)"/>
<path d="M0 0 C0.77859375 0.10828125 1.5571875 0.2165625 2.359375 0.328125 C4.25 0.75 4.25 0.75 5.25 1.75 C5.34443335 4.05053835 5.36742128 6.35402173 5.36352539 8.65649414 C5.36367142 9.37840439 5.36381744 10.10031464 5.3639679 10.84410095 C5.36326869 13.24114947 5.35547595 15.63812123 5.34765625 18.03515625 C5.3457921 19.69282489 5.34436818 21.35049407 5.34336853 23.00816345 C5.33954312 27.37954214 5.32971265 31.75088781 5.31866455 36.12225342 C5.30845092 40.57954461 5.30387101 45.03684111 5.29882812 49.49414062 C5.2880904 58.24611062 5.27049342 66.9980474 5.25 75.75 C0.3 75.75 -4.65 75.75 -9.75 75.75 C-9.86288698 66.28381893 -9.95464955 56.81808363 -10.00906086 47.35138226 C-10.03517346 42.95576188 -10.07060094 38.56062517 -10.12719727 34.1652832 C-10.18145913 29.92477977 -10.211408 25.68474199 -10.22438622 21.44391823 C-10.23363672 19.82470172 -10.25170095 18.20551119 -10.27865028 16.58649254 C-10.31486605 14.32101427 -10.31994891 12.05746843 -10.31762695 9.79174805 C-10.32873001 8.50157272 -10.33983307 7.2113974 -10.35127258 5.88212585 C-9.75 2.75 -9.75 2.75 -7.3658905 0.81672668 C-4.52055221 -0.34356587 -3.00758319 -0.46425781 0 0 Z " fill="#0270FB" transform="translate(171.75,134.25)"/>
<path d="M0 0 C0.66 0.02449219 1.32 0.04898438 2 0.07421875 C4 0.3125 4 0.3125 8 1.3125 C8 18.1425 8 34.9725 8 52.3125 C2.72 52.3125 -2.56 52.3125 -8 52.3125 C-8.09884695 45.54984816 -8.17145935 38.78761642 -8.21972656 32.02441406 C-8.23984688 29.72355831 -8.26714634 27.42275371 -8.30175781 25.12207031 C-8.35025612 21.81562683 -8.37296478 18.50985915 -8.390625 15.203125 C-8.41127014 14.17382874 -8.43191528 13.14453247 -8.45318604 12.08404541 C-8.45542994 4.94887261 -8.45542994 4.94887261 -6.10058594 1.65844727 C-3.79906799 0.18375312 -2.70124926 -0.15300045 0 0 Z " fill="#0370F8" transform="translate(300,157.6875)"/>
<path d="M0 0 C0.99 0.33 1.98 0.66 3 1 C3 17.83 3 34.66 3 52 C-1.95 52 -6.9 52 -12 52 C-12.09874806 45.07662135 -12.17141232 38.15365098 -12.21972656 31.22973633 C-12.23986357 28.87354392 -12.26717516 26.51740161 -12.30175781 24.16137695 C-12.35018287 20.77803194 -12.37294796 17.3953466 -12.390625 14.01171875 C-12.41127014 12.95538742 -12.43191528 11.89905609 -12.45318604 10.81071472 C-12.45348816 9.82992447 -12.45379028 8.84913422 -12.45410156 7.83862305 C-12.46742523 6.54289619 -12.46742523 6.54289619 -12.48101807 5.22099304 C-12 3 -12 3 -10.09881592 1.21809387 C-6.63156215 -0.79420293 -3.9643147 -0.25170252 0 0 Z " fill="#0270FB" transform="translate(197,158)"/>
<path d="M0 0 C3.15977092 2.77574759 3.77379137 6.24708598 4.6875 10.25 C4.93886719 11.32765625 5.19023438 12.4053125 5.44921875 13.515625 C5.63097656 14.33546875 5.81273438 15.1553125 6 16 C-15.08191654 16.30602782 -15.08191654 16.30602782 -22 14 C-23.25 7.375 -23.25 7.375 -21 4 C-17.98828125 2.83203125 -17.98828125 2.83203125 -14.3125 1.8125 C-13.11238281 1.46832031 -11.91226562 1.12414062 -10.67578125 0.76953125 C-6.91509718 -0.01777456 -3.82284657 -0.42989689 0 0 Z " fill="#FA4848" transform="translate(43,120)"/>
<path d="M0 0 C2.21437308 3.454422 2.39945083 6.44147005 1.5625 10.4375 C-0.30765094 12.86869623 -1.71888345 14.07819173 -4.4375 15.4375 C-8.46127473 15.81710139 -10.75914891 15.82091583 -14.3125 13.8125 C-16.93750993 10.87866537 -17.4375 9.36361327 -17.4375 5.4375 C-16.21853747 1.9160527 -15.35097852 0.02111128 -12.1875 -2 C-7.58558192 -2.94130143 -3.9814873 -2.55223545 0 0 Z " fill="#FCCB09" transform="translate(62.4375,110.5625)"/>
<path d="M0 0 C2.12890625 0.41015625 2.12890625 0.41015625 4.69140625 1.91015625 C6.73036957 5.45617942 6.91441143 8.41717158 6.12890625 12.41015625 C4.62890625 14.91015625 4.62890625 14.91015625 2.12890625 16.41015625 C-1.64093538 17.08223867 -4.76513217 16.86388408 -8.30859375 15.41015625 C-10.72534162 12.31671898 -11.15783318 9.28868434 -10.87109375 5.41015625 C-8.46088121 0.15151071 -5.37346922 -0.34524761 0 0 Z " fill="#0270FA" transform="translate(301.87109375,134.58984375)"/>
<path d="M0 0 C3.35352755 2.69918071 3.90377072 4.31436636 4.5 8.5625 C4 12 4 12 2.5625 14.4375 C-1.23117246 16.75071492 -4.67576217 16.91245385 -9 16 C-12.1139376 13.41771029 -12.88506448 11.93864009 -13.375 7.9375 C-13.01355323 5.10616693 -12.57370678 3.36056017 -11 1 C-7.52499089 -0.73750455 -3.79143683 -0.58588811 0 0 Z " fill="#0270FB" transform="translate(197,135)"/>
<path d="M0 0 C0 3.96 0 7.92 0 12 C-2.85506049 12.95168683 -4.90937282 13.1900946 -7.88671875 13.31640625 C-9.2934082 13.37924805 -9.2934082 13.37924805 -10.72851562 13.44335938 C-11.70498047 13.48267578 -12.68144531 13.52199219 -13.6875 13.5625 C-14.67556641 13.60568359 -15.66363281 13.64886719 -16.68164062 13.69335938 C-19.12095546 13.79941654 -21.56037113 13.90147714 -24 14 C-22.66559387 10.87879758 -21.43728848 9.29707925 -18.59375 7.45703125 C-17.93246094 7.02326172 -17.27117188 6.58949219 -16.58984375 6.14257812 C-15.90019531 5.70365234 -15.21054687 5.26472656 -14.5 4.8125 C-13.81035156 4.36197266 -13.12070312 3.91144531 -12.41015625 3.44726562 C-5.43531264 -1.08706253 -5.43531264 -1.08706253 0 0 Z " fill="#03CBC6" transform="translate(75,122)"/>
</svg>
